<?xml version="1.0" encoding="UTF-8"?>
<!DOCTYPE svg PUBLIC "-//W3C//DTD SVG 1.1//EN" "http://www.w3.org/Graphics/SVG/1.1/DTD/svg11.dtd">
<!-- Creator: CorelDRAW X7 -->
<svg xmlns="http://www.w3.org/2000/svg" xml:space="preserve" width="32.1948mm" height="10.5036mm" version="1.1" style="shape-rendering:geometricPrecision; text-rendering:geometricPrecision; image-rendering:optimizeQuality; fill-rule:evenodd; clip-rule:evenodd"
viewBox="0 0 693066 226114"
 xmlns:xlink="http://www.w3.org/1999/xlink">
 <defs>
  <style type="text/css">
   <![CDATA[
    .fil2 {fill:none}
    .fil5 {fill:none;fill-rule:nonzero}
    .fil1 {fill:#6F4FFF}
    .fil0 {fill:#896EFF}
    .fil4 {fill:#6F4FFF;fill-rule:nonzero}
    .fil3 {fill:#896EFF;fill-rule:nonzero}
   ]]>
  </style>
   <clipPath id="id0">
    <path d="M0 0l693066 0 0 226114 -693066 0 0 -226114z"/>
   </clipPath>
     <clipPath id="id1">
      <path d="M373528 103004c3046,112 6654,620 10828,1522 4175,902 8151,2482 11929,4736 3778,2258 6964,5358 9560,9308 2594,3946 3890,9022 3890,15226 0,8572 -1492,15511 -4482,20813 -2988,5300 -6882,9388 -11674,12266 -4794,2876 -10237,4792 -16329,5752 -6090,960 -12238,1438 -18442,1438l-32823 0c-9926,0 -18162,-1184 -24702,-3552 -1781,-646 -3458,-1339 -5036,-2082 3469,-1629 6439,-3638 8906,-6025 3354,-3240 5813,-7011 7378,-11315 1498,-4122 2279,-8479 2342,-13065 316,532 663,1068 1044,1608 1072,1522 2454,2904 4144,4144 1692,1240 3752,2284 6176,3131 2426,846 5330,1270 8714,1270l15059 0c2368,0 4878,-168 7530,-508 2650,-338 5130,-1017 7444,-2030 2312,-1017 4202,-2427 5668,-4231 1466,-1804 2198,-4118 2198,-6936 0,-564 -112,-1382 -338,-2454 -224,-1072 -816,-2142 -1776,-3214 -958,-1074 -2340,-2032 -4146,-2878 -1804,-846 -4284,-1270 -7444,-1270l-23519 -168 -22849 0c-131,-381 -271,-758 -415,-1134 -1677,-4358 -4301,-8157 -7879,-11397 2013,-2906 3494,-6146 4441,-9722 951,-3575 1427,-7319 1427,-11228 0,-4917 -783,-9498 -2349,-13745 -1562,-4246 -3967,-7961 -7205,-11145 -2363,-2325 -5190,-4288 -8475,-5899 4678,-2654 9922,-4441 15726,-5356 6090,-958 12238,-1435 18442,-1435l32655 0c10040,0 18302,1239 24786,3722 6486,2482 11647,5612 15483,9390 3834,3780 6514,7952 8036,12520 1524,4568 2284,8994 2284,13282l-38069 0c-564,-1354 -1382,-2820 -2452,-4400 -1072,-1578 -2454,-2988 -4146,-4228 -1692,-1242 -3722,-2286 -6092,-3130 -2368,-846 -5242,-1270 -8628,-1270l-15059 0c-2368,0 -4908,168 -7614,506 -2706,340 -5188,1018 -7444,2032 -2256,1016 -4116,2396 -5584,4146 -1466,1748 -2198,4088 -2198,7020 0,564 142,1410 424,2541 282,1128 872,2225 1774,3295 902,1075 2258,2033 4062,2879 1804,846 4284,1270 7444,1270l47375 0zm-97038 41605c-730,-3179 -1096,-6333 -1096,-9459l2811 0c87,1027 134,1787 134,2282 0,560 -56,1453 -168,2683 -112,1229 -504,2460 -1173,3687 -151,276 -319,545 -508,807z"/>
     </clipPath>
       <clipPath id="id2">
        <path d="M373050 60688l18471 0c3065,1739 5696,3689 7894,5853 3834,3780 6514,7952 8036,12520 1524,4568 2284,8994 2284,13282l-36685 0 0 -31655zm20654 106112l-20654 0 0 -63796 478 0c3046,112 6654,620 10828,1522 4175,902 8151,2482 11929,4736 3778,2258 6964,5358 9560,9308 2594,3946 3890,9022 3890,15226 0,8572 -1492,15511 -4482,20813 -2962,5255 -6816,9317 -11549,12191z"/>
       </clipPath>
       <clipPath id="id3">
        <path d="M373528 103004c3046,112 6654,620 10828,1522 4175,902 8151,2482 11929,4736 3778,2258 6964,5358 9560,9308 2594,3946 3890,9022 3890,15226 0,8572 -1492,15511 -4482,20813 -2988,5300 -6882,9388 -11674,12266 -4794,2876 -10237,4792 -16329,5752 -6090,960 -12238,1438 -18442,1438l-32823 0c-9926,0 -18162,-1184 -24702,-3552 -1781,-646 -3458,-1339 -5036,-2082 3469,-1629 6439,-3638 8906,-6025 3354,-3240 5813,-7011 7378,-11315 1498,-4122 2279,-8479 2342,-13065 316,532 663,1068 1044,1608 1072,1522 2454,2904 4144,4144 1692,1240 3752,2284 6176,3131 2426,846 5330,1270 8714,1270l15059 0c2368,0 4878,-168 7530,-508 2650,-338 5130,-1017 7444,-2030 2312,-1017 4202,-2427 5668,-4231 1466,-1804 2198,-4118 2198,-6936 0,-564 -112,-1382 -338,-2454 -224,-1072 -816,-2142 -1776,-3214 -958,-1074 -2340,-2032 -4146,-2878 -1804,-846 -4284,-1270 -7444,-1270l-23519 -168 -22849 0c-131,-381 -271,-758 -415,-1134 -1677,-4358 -4301,-8157 -7879,-11397 2013,-2906 3494,-6146 4441,-9722 951,-3575 1427,-7319 1427,-11228 0,-4917 -783,-9498 -2349,-13745 -1562,-4246 -3967,-7961 -7205,-11145 -2363,-2325 -5190,-4288 -8475,-5899 4678,-2654 9922,-4441 15726,-5356 6090,-958 12238,-1435 18442,-1435l32655 0c10040,0 18302,1239 24786,3722 6486,2482 11647,5612 15483,9390 3834,3780 6514,7952 8036,12520 1524,4568 2284,8994 2284,13282l-38069 0c-564,-1354 -1382,-2820 -2452,-4400 -1072,-1578 -2454,-2988 -4146,-4228 -1692,-1242 -3722,-2286 -6092,-3130 -2368,-846 -5242,-1270 -8628,-1270l-15059 0c-2368,0 -4908,168 -7614,506 -2706,340 -5188,1018 -7444,2032 -2256,1016 -4116,2396 -5584,4146 -1466,1748 -2198,4088 -2198,7020 0,564 142,1410 424,2541 282,1128 872,2225 1774,3295 902,1075 2258,2033 4062,2879 1804,846 4284,1270 7444,1270l47375 0zm-97038 41605c-730,-3179 -1096,-6333 -1096,-9459l2811 0c87,1027 134,1787 134,2282 0,560 -56,1453 -168,2683 -112,1229 -504,2460 -1173,3687 -151,276 -319,545 -508,807z"/>
       </clipPath>
     <clipPath id="id4">
      <path d="M0 0l693066 0 0 226114 -693066 0 0 -226114z"/>
     </clipPath>
     <clipPath id="id5" style="clip-rule:nonzero">
      <path d="M299012 112075c3399,3079 5892,6689 7485,10828 1593,4140 2389,8601 2389,13375 0,4566 -745,8891 -2230,12977 -1485,4088 -3821,7670 -7007,10751 -3184,3078 -7244,5493 -12180,7244 -4937,1752 -10854,2628 -17756,2628l-87896 0 0 -111147 85188 0c6477,0 12077,878 16802,2626 4723,1752 8624,4142 11702,7166 3078,3027 5363,6555 6848,10590 1485,4036 2230,8387 2230,13058 0,3716 -452,7272 -1356,10669 -900,3397 -2306,6475 -4219,9235zm-82484 -9394l45224 0c2336,0 4140,-452 5414,-1352 1275,-904 2228,-1940 2866,-3109 637,-1166 1009,-2333 1115,-3500 107,-1169 159,-2019 159,-2549 0,-532 -52,-1354 -159,-2467 -106,-1115 -478,-2256 -1115,-3425 -638,-1169 -1591,-2202 -2866,-3104 -1274,-904 -3078,-1354 -5414,-1354l-45224 0 0 20860zm47771 44107c2443,0 4327,-450 5653,-1354 1328,-902 2310,-1935 2947,-3104 637,-1167 1007,-2336 1115,-3505 103,-1167 157,-2015 157,-2547 0,-529 -54,-1380 -157,-2546 -108,-1167 -478,-2336 -1115,-3503 -637,-1169 -1619,-2204 -2947,-3106 -1326,-902 -3210,-1354 -5653,-1354l-47771 0 0 21019 47771 0z"/>
     </clipPath>
       <clipPath id="id6">
        <path d="M274072 169755l0 -31625c65,-816 99,-1432 99,-1852 0,-417 -34,-1035 -99,-1851l0 -75309c3578,413 6822,1160 9735,2239 4723,1752 8624,4142 11702,7166 3078,3027 5363,6555 6848,10590 1485,4036 2230,8387 2230,13058 0,3716 -452,7272 -1356,10669 -900,3397 -2306,6475 -4219,9235 3399,3079 5892,6689 7485,10828 1593,4140 2389,8601 2389,13375 0,4566 -745,8891 -2230,12977 -1485,4088 -3821,7670 -7007,10751 -3184,3078 -7244,5493 -12180,7244 -3865,1371 -8329,2208 -13397,2505z"/>
       </clipPath>
       <clipPath id="id7">
        <path d="M299012 112075c3399,3079 5892,6689 7485,10828 1593,4140 2389,8601 2389,13375 0,4566 -745,8891 -2230,12977 -1485,4088 -3821,7670 -7007,10751 -3184,3078 -7244,5493 -12180,7244 -4937,1752 -10854,2628 -17756,2628l-87896 0 0 -111147 85188 0c6477,0 12077,878 16802,2626 4723,1752 8624,4142 11702,7166 3078,3027 5363,6555 6848,10590 1485,4036 2230,8387 2230,13058 0,3716 -452,7272 -1356,10669 -900,3397 -2306,6475 -4219,9235zm-82484 -9394l45224 0c2336,0 4140,-452 5414,-1352 1275,-904 2228,-1940 2866,-3109 637,-1166 1009,-2333 1115,-3500 107,-1169 159,-2019 159,-2549 0,-532 -52,-1354 -159,-2467 -106,-1115 -478,-2256 -1115,-3425 -638,-1169 -1591,-2202 -2866,-3104 -1274,-904 -3078,-1354 -5414,-1354l-45224 0 0 20860zm47771 44107c2443,0 4327,-450 5653,-1354 1328,-902 2310,-1935 2947,-3104 637,-1167 1007,-2336 1115,-3505 103,-1167 157,-2015 157,-2547 0,-529 -54,-1380 -157,-2546 -108,-1167 -478,-2336 -1115,-3503 -637,-1169 -1619,-2204 -2947,-3106 -1326,-902 -3210,-1354 -5653,-1354l-47771 0 0 21019 47771 0z"/>
       </clipPath>
      <clipPath id="id8" style="clip-rule:nonzero">
       <path d="M296392 162707c-1712,-1136 -3249,-2365 -4605,-3681 -3642,-3537 -6189,-7502 -7634,-11894 -1446,-4395 -2172,-8733 -2172,-13021l26849 0c37,714 56,1438 56,2167 0,4566 -745,8891 -2230,12977 -1485,4088 -3821,7670 -7007,10751 -999,966 -2086,1866 -3257,2701zm9984 -40111l-282 -61c-3965,-856 -7741,-2357 -11332,-4499 -3591,-2144 -6617,-5091 -9082,-8843 -2465,-3750 -3699,-8572 -3699,-14467 0,-8251 1421,-14868 4261,-19852 1892,-3320 4178,-6137 6854,-8460 852,665 1657,1367 2413,2109 3078,3027 5363,6555 6848,10590 1485,4036 2230,8387 2230,13058 0,3716 -452,7272 -1356,10669 -900,3397 -2306,6475 -4219,9235 3315,3003 5767,6508 7364,10521z"/>
      </clipPath>
        <clipPath id="id9">
        </clipPath>
        <clipPath id="id10">
         <path d="M296392 162707c-1712,-1136 -3249,-2365 -4605,-3681 -3642,-3537 -6189,-7502 -7634,-11894 -1446,-4395 -2172,-8733 -2172,-13021l26849 0c37,714 56,1438 56,2167 0,4566 -745,8891 -2230,12977 -1485,4088 -3821,7670 -7007,10751 -999,966 -2086,1866 -3257,2701zm9984 -40111l-282 -61c-3965,-856 -7741,-2357 -11332,-4499 -3591,-2144 -6617,-5091 -9082,-8843 -2465,-3750 -3699,-8572 -3699,-14467 0,-8251 1421,-14868 4261,-19852 1892,-3320 4178,-6137 6854,-8460 852,665 1657,1367 2413,2109 3078,3027 5363,6555 6848,10590 1485,4036 2230,8387 2230,13058 0,3716 -452,7272 -1356,10669 -900,3397 -2306,6475 -4219,9235 3315,3003 5767,6508 7364,10521z"/>
        </clipPath>
      <clipPath id="id11" style="clip-rule:nonzero">
       <path d="M299012 112075c3399,3079 5892,6689 7485,10828 1593,4140 2389,8601 2389,13375 0,4566 -745,8891 -2230,12977 -1485,4088 -3821,7670 -7007,10751 -3184,3078 -7244,5493 -12180,7244 -4937,1752 -10854,2628 -17756,2628l-87896 0 0 -111147 85188 0c6477,0 12077,878 16802,2626 4723,1752 8624,4142 11702,7166 3078,3027 5363,6555 6848,10590 1485,4036 2230,8387 2230,13058 0,3716 -452,7272 -1356,10669 -900,3397 -2306,6475 -4219,9235zm-82484 -9394l45224 0c2336,0 4140,-452 5414,-1352 1275,-904 2228,-1940 2866,-3109 637,-1166 1009,-2333 1115,-3500 107,-1169 159,-2019 159,-2549 0,-532 -52,-1354 -159,-2467 -106,-1115 -478,-2256 -1115,-3425 -638,-1169 -1591,-2202 -2866,-3104 -1274,-904 -3078,-1354 -5414,-1354l-45224 0 0 20860zm47771 44107c2443,0 4327,-450 5653,-1354 1328,-902 2310,-1935 2947,-3104 637,-1167 1007,-2336 1115,-3505 103,-1167 157,-2015 157,-2547 0,-529 -54,-1380 -157,-2546 -108,-1167 -478,-2336 -1115,-3503 -637,-1169 -1619,-2204 -2947,-3106 -1326,-902 -3210,-1354 -5653,-1354l-47771 0 0 21019 47771 0z"/>
      </clipPath>
     <clipPath id="id12" style="clip-rule:nonzero">
      <path d="M0 0l693066 0 0 226114 -693066 0 0 -226114z"/>
     </clipPath>
 </defs>
 <g id="Layer_x0020_1">
  <metadata id="CorelCorpID_0Corel-Layer"/>
  <g>
  </g>
  <g style="clip-path:url(#id0)">
   <g>
    <g id="_2417618546528">
     <path class="fil0" d="M373528 103004c3046,112 6654,620 10828,1522 4175,902 8151,2482 11929,4736 3778,2258 6964,5358 9560,9308 2594,3946 3890,9022 3890,15226 0,8572 -1492,15511 -4482,20813 -2988,5300 -6882,9388 -11674,12266 -4794,2876 -10237,4792 -16329,5752 -6090,960 -12238,1438 -18442,1438l-32823 0c-9926,0 -18162,-1184 -24702,-3552 -1781,-646 -3458,-1339 -5036,-2082 3469,-1629 6439,-3638 8906,-6025 3354,-3240 5813,-7011 7378,-11315 1498,-4122 2279,-8479 2342,-13065 316,532 663,1068 1044,1608 1072,1522 2454,2904 4144,4144 1692,1240 3752,2284 6176,3131 2426,846 5330,1270 8714,1270l15059 0c2368,0 4878,-168 7530,-508 2650,-338 5130,-1017 7444,-2030 2312,-1017 4202,-2427 5668,-4231 1466,-1804 2198,-4118 2198,-6936 0,-564 -112,-1382 -338,-2454 -224,-1072 -816,-2142 -1776,-3214 -958,-1074 -2340,-2032 -4146,-2878 -1804,-846 -4284,-1270 -7444,-1270l-23519 -168 -22849 0c-131,-381 -271,-758 -415,-1134 -1677,-4358 -4301,-8157 -7879,-11397 2013,-2906 3494,-6146 4441,-9722 951,-3575 1427,-7319 1427,-11228 0,-4917 -783,-9498 -2349,-13745 -1562,-4246 -3967,-7961 -7205,-11145 -2363,-2325 -5190,-4288 -8475,-5899 4678,-2654 9922,-4441 15726,-5356 6090,-958 12238,-1435 18442,-1435l32655 0c10040,0 18302,1239 24786,3722 6486,2482 11647,5612 15483,9390 3834,3780 6514,7952 8036,12520 1524,4568 2284,8994 2284,13282l-38069 0c-564,-1354 -1382,-2820 -2452,-4400 -1072,-1578 -2454,-2988 -4146,-4228 -1692,-1242 -3722,-2286 -6092,-3130 -2368,-846 -5242,-1270 -8628,-1270l-15059 0c-2368,0 -4908,168 -7614,506 -2706,340 -5188,1018 -7444,2032 -2256,1016 -4116,2396 -5584,4146 -1466,1748 -2198,4088 -2198,7020 0,564 142,1410 424,2541 282,1128 872,2225 1774,3295 902,1075 2258,2033 4062,2879 1804,846 4284,1270 7444,1270l47375 0zm-97038 41605c-730,-3179 -1096,-6333 -1096,-9459l2811 0c87,1027 134,1787 134,2282 0,560 -56,1453 -168,2683 -112,1229 -504,2460 -1173,3687 -151,276 -319,545 -508,807z"/>
    </g>
    <g style="clip-path:url(#id1)">
     <g>
      <g>
      </g>
      <path id="1" class="fil1" d="M296779 111268c3772,3419 6544,7427 8312,12023 1767,4598 2652,9547 2652,14852 0,5067 -824,9872 -2476,14410 -1651,4538 -4243,8516 -7780,11935 -2107,2038 -4559,3814 -7358,5328 -9726,-9102 -17079,-20701 -21042,-33774l-65 -726c-112,-1233 -491,-2467 -1135,-3698 -1371,-5735 -2094,-11720 -2094,-17874 0,-21289 8665,-40549 22657,-54456 1621,1098 3100,2308 4441,3623 3417,3361 5953,7281 7602,11758 1649,4480 2477,9313 2477,14499 0,4125 -501,8075 -1504,11847 -1001,3769 -2564,7187 -4687,10253z"/>
      <g>
      </g>
      <g>
      </g>
      <g style="clip-path:url(#id2)">
       <image x="373050" y="60688" width="43390" height="106112" xlink:href="bsc_Images\bsc_ImgID1.png"/>
      </g>
      <g style="clip-path:url(#id3)">
      </g>
      <path class="fil1" d="M399878 164828c-1583,-1262 -3096,-2614 -4534,-4052 -4949,-4951 -8869,-10757 -11758,-17417 -2887,-6659 -4329,-13761 -4329,-21304l0 -16621c0,-7545 1442,-14645 4329,-21305 2889,-6661 6809,-12467 11758,-17416 1438,-1438 2953,-2792 4536,-4054 10016,11229 16782,25420 18821,41094 -13,549 -19,1111 -19,1681l0 16621c0,571 6,1130 19,1679 -2036,15677 -8807,29865 -18823,41094z"/>
     </g>
    </g>
    <g style="clip-path:url(#id4)">
     <path class="fil2" d="M373528 103004c3046,112 6654,620 10828,1522 4175,902 8151,2482 11929,4736 3778,2258 6964,5358 9560,9308 2594,3946 3890,9022 3890,15226 0,8572 -1492,15511 -4482,20813 -2988,5300 -6882,9388 -11674,12266 -4794,2876 -10237,4792 -16329,5752 -6090,960 -12238,1438 -18442,1438l-32823 0c-9926,0 -18162,-1184 -24702,-3552 -1781,-646 -3458,-1339 -5036,-2082 3469,-1629 6439,-3638 8906,-6025 3354,-3240 5813,-7011 7378,-11315 1498,-4122 2279,-8479 2342,-13065 316,532 663,1068 1044,1608 1072,1522 2454,2904 4144,4144 1692,1240 3752,2284 6176,3131 2426,846 5330,1270 8714,1270l15059 0c2368,0 4878,-168 7530,-508 2650,-338 5130,-1017 7444,-2030 2312,-1017 4202,-2427 5668,-4231 1466,-1804 2198,-4118 2198,-6936 0,-564 -112,-1382 -338,-2454 -224,-1072 -816,-2142 -1776,-3214 -958,-1074 -2340,-2032 -4146,-2878 -1804,-846 -4284,-1270 -7444,-1270l-23519 -168 -22849 0c-131,-381 -271,-758 -415,-1134 -1677,-4358 -4301,-8157 -7879,-11397 2013,-2906 3494,-6146 4441,-9722 951,-3575 1427,-7319 1427,-11228 0,-4917 -783,-9498 -2349,-13745 -1562,-4246 -3967,-7961 -7205,-11145 -2363,-2325 -5190,-4288 -8475,-5899 4678,-2654 9922,-4441 15726,-5356 6090,-958 12238,-1435 18442,-1435l32655 0c10040,0 18302,1239 24786,3722 6486,2482 11647,5612 15483,9390 3834,3780 6514,7952 8036,12520 1524,4568 2284,8994 2284,13282l-38069 0c-564,-1354 -1382,-2820 -2452,-4400 -1072,-1578 -2454,-2988 -4146,-4228 -1692,-1242 -3722,-2286 -6092,-3130 -2368,-846 -5242,-1270 -8628,-1270l-15059 0c-2368,0 -4908,168 -7614,506 -2706,340 -5188,1018 -7444,2032 -2256,1016 -4116,2396 -5584,4146 -1466,1748 -2198,4088 -2198,7020 0,564 142,1410 424,2541 282,1128 872,2225 1774,3295 902,1075 2258,2033 4062,2879 1804,846 4284,1270 7444,1270l47375 0zm-97038 41605c-730,-3179 -1096,-6333 -1096,-9459l2811 0c87,1027 134,1787 134,2282 0,560 -56,1453 -168,2683 -112,1229 -504,2460 -1173,3687 -151,276 -319,545 -508,807z"/>
     <path class="fil0" d="M403120 60748c1453,-792 2957,-1526 4510,-2198 6251,-2710 12920,-4067 20001,-4067l32204 0c6641,0 12949,1217 18925,3651 5976,2437 11259,5755 15853,9961 4591,4206 8354,9186 11286,14940 2935,5754 4678,11952 5229,18593l-37016 0c-443,-5425 -1522,-9601 -3238,-12535 -1715,-2932 -3734,-5089 -6057,-6474 -2325,-1382 -4732,-2187 -7223,-2408 -2488,-220 -4675,-330 -6557,-330l-14774 0c-1991,0 -4314,138 -6971,416 -2656,275 -5175,1216 -7551,2820 -1296,874 -2487,2036 -3570,3485 -3399,-9575 -8542,-18320 -15051,-25854zm108008 64948c-551,6641 -2294,12864 -5229,18674 -2932,5811 -6695,10818 -11286,15024 -4594,4205 -9877,7524 -15853,9959 -5976,2435 -12284,3651 -18925,3651l-32204 0c-7081,0 -13750,-1354 -20001,-4067 -1553,-671 -3057,-1405 -4510,-2198 6509,-7534 11652,-16281 15051,-25854 1083,1449 2274,2611 3570,3485 2376,1606 4895,2547 7551,2823 2657,277 4980,413 6971,413l14774 0c1882,0 4069,-110 6557,-329 2491,-222 4898,-1025 7223,-2409 2323,-1382 4370,-3567 6141,-6555 1772,-2988 2823,-7195 3154,-12617l37016 0z"/>
     <path class="fil0" d="M278892 196908c17648,13534 39720,21583 63678,21583 24670,0 47347,-8538 65245,-22808 1352,1317 2734,2607 4148,3860 -18961,15351 -43100,24554 -69393,24554 -25613,0 -49190,-8727 -67914,-23370 1442,-1240 2856,-2510 4236,-3819z"/>
     <path class="fil0" d="M342570 3391c26293,0 50432,9202 69393,24554 -1414,1252 -2796,2542 -4148,3859 -17898,-14270 -40575,-22808 -65245,-22808 -23958,0 -46030,8049 -63678,21583 -1380,-1308 -2794,-2578 -4236,-3818 18724,-14643 42301,-23370 67914,-23370z"/>
     <path class="fil3" d="M299012 112075c3399,3079 5892,6689 7485,10828 1593,4140 2389,8601 2389,13375 0,4566 -745,8891 -2230,12977 -1485,4088 -3821,7670 -7007,10751 -3184,3078 -7244,5493 -12180,7244 -4937,1752 -10854,2628 -17756,2628l-87896 0 0 -111147 85188 0c6477,0 12077,878 16802,2626 4723,1752 8624,4142 11702,7166 3078,3027 5363,6555 6848,10590 1485,4036 2230,8387 2230,13058 0,3716 -452,7272 -1356,10669 -900,3397 -2306,6475 -4219,9235zm-82484 -9394l45224 0c2336,0 4140,-452 5414,-1352 1275,-904 2228,-1940 2866,-3109 637,-1166 1009,-2333 1115,-3500 107,-1169 159,-2019 159,-2549 0,-532 -52,-1354 -159,-2467 -106,-1115 -478,-2256 -1115,-3425 -638,-1169 -1591,-2202 -2866,-3104 -1274,-904 -3078,-1354 -5414,-1354l-45224 0 0 20860zm47771 44107c2443,0 4327,-450 5653,-1354 1328,-902 2310,-1935 2947,-3104 637,-1167 1007,-2336 1115,-3505 103,-1167 157,-2015 157,-2547 0,-529 -54,-1380 -157,-2546 -108,-1167 -478,-2336 -1115,-3503 -637,-1169 -1619,-2204 -2947,-3106 -1326,-902 -3210,-1354 -5653,-1354l-47771 0 0 21019 47771 0z"/>
    </g>
    <g style="clip-path:url(#id5)">
     <g>
      <g>
      </g>
      <g style="clip-path:url(#id6)">
       <image x="274072" y="51489" width="139096" height="126074" xlink:href="bsc_Images\bsc_ImgID2.png"/>
      </g>
      <g style="clip-path:url(#id7)">
      </g>
      <path class="fil4" d="M375216 103570c2895,105 6322,588 10290,1444 3963,859 7741,2358 11332,4502 3589,2144 6617,5091 9082,8841 2465,3750 3696,8574 3696,14468 0,8144 -1418,14736 -4258,19773 -2839,5035 -6537,8919 -11090,11653 -4556,2732 -9726,4553 -15513,5464 -5789,912 -11629,1366 -17523,1366l-31185 0c-9431,0 -17256,-1123 -23469,-3373 -6217,-2252 -11146,-5145 -14791,-8682 -3642,-3537 -6189,-7502 -7634,-11894 -1446,-4395 -2172,-8733 -2172,-13021l36170 0c534,1392 1314,2813 2330,4260 1018,1446 2331,2760 3939,3937 1606,1180 3563,2170 5866,2975 2306,803 5066,1206 8280,1206l14307 0c2249,0 4635,-162 7153,-482 2519,-321 4876,-967 7074,-1931 2196,-965 3991,-2304 5384,-4017 1393,-1714 2090,-3912 2090,-6592 0,-534 -107,-1313 -322,-2332 -214,-1016 -775,-2034 -1688,-3052 -911,-1020 -2222,-1931 -3938,-2734 -1715,-803 -4073,-1206 -7073,-1206l-22344 -161 -22666 0c-2998,-108 -6484,-590 -10449,-1447 -3965,-856 -7741,-2357 -11332,-4499 -3591,-2144 -6617,-5091 -9082,-8843 -2465,-3750 -3699,-8572 -3699,-14467 0,-8251 1421,-14868 4261,-19852 2841,-4984 6565,-8841 11172,-11575 4609,-2732 9806,-4553 15592,-5466 5787,-911 11627,-1365 17524,-1365l31023 0c9538,0 17387,1180 23550,3535 6162,2359 11065,5334 14710,8923 3642,3591 6187,7556 7634,11896 1448,4340 2169,8546 2169,12619l-36167 0c-536,-1287 -1314,-2680 -2332,-4180 -1018,-1501 -2331,-2840 -3937,-4019 -1608,-1178 -3537,-2170 -5789,-2973 -2249,-803 -4981,-1206 -8197,-1206l-14307 0c-2250,0 -4661,159 -7234,482 -2570,321 -4929,965 -7071,1929 -2144,965 -3912,2276 -5307,3940 -1393,1659 -2088,3883 -2088,6669 0,536 133,1339 403,2413 267,1072 828,2114 1685,3132 857,1021 2144,1931 3860,2734 1714,803 4071,1208 7072,1208l45009 0z"/>
     </g>
     <g style="clip-path:url(#id8)">
      <g>
       <g>
       </g>
       <g style="clip-path:url(#id9)">
        <image x="461928" y="45950" width="59958" height="119554" xlink:href="bsc_Images\bsc_ImgID3.png"/>
       </g>
       <g style="clip-path:url(#id10)">
       </g>
       <path class="fil1" d="M492759 154262c-1503,-1201 -2938,-2484 -4305,-3851 -4704,-4706 -8428,-10221 -11171,-16548 -2745,-6327 -4116,-13074 -4116,-20240l0 -15790c0,-7169 1371,-13915 4116,-20244 2743,-6327 6467,-11843 11171,-16544 1367,-1367 2805,-2652 4307,-3854 9517,10669 15945,24152 17883,39044 -13,521 -17,1055 -17,1598l0 15790c0,540 4,1072 17,1595 -1935,14893 -8368,28375 -17885,39044z"/>
      </g>
     </g>
     <g style="clip-path:url(#id11)">
     </g>
    </g>
    <g style="clip-path:url(#id12)">
     <path class="fil5" d="M299012 112075c3399,3079 5892,6689 7485,10828 1593,4140 2389,8601 2389,13375 0,4566 -745,8891 -2230,12977 -1485,4088 -3821,7670 -7007,10751 -3184,3078 -7244,5493 -12180,7244 -4937,1752 -10854,2628 -17756,2628l-87896 0 0 -111147 85188 0c6477,0 12077,878 16802,2626 4723,1752 8624,4142 11702,7166 3078,3027 5363,6555 6848,10590 1485,4036 2230,8387 2230,13058 0,3716 -452,7272 -1356,10669 -900,3397 -2306,6475 -4219,9235zm-82484 -9394l45224 0c2336,0 4140,-452 5414,-1352 1275,-904 2228,-1940 2866,-3109 637,-1166 1009,-2333 1115,-3500 107,-1169 159,-2019 159,-2549 0,-532 -52,-1354 -159,-2467 -106,-1115 -478,-2256 -1115,-3425 -638,-1169 -1591,-2202 -2866,-3104 -1274,-904 -3078,-1354 -5414,-1354l-45224 0 0 20860zm47771 44107c2443,0 4327,-450 5653,-1354 1328,-902 2310,-1935 2947,-3104 637,-1167 1007,-2336 1115,-3505 103,-1167 157,-2015 157,-2547 0,-529 -54,-1380 -157,-2546 -108,-1167 -478,-2336 -1115,-3503 -637,-1169 -1619,-2204 -2947,-3106 -1326,-902 -3210,-1354 -5653,-1354l-47771 0 0 21019 47771 0z"/>
    </g>
   </g>
  </g>
  <polygon class="fil2" points="0,0 693066,0 693066,226114 0,226114 "/>
 </g>
</svg>
